<?xml version="1.0" encoding="utf-8"?>
<!-- Generator: Adobe Illustrator 19.0.0, SVG Export Plug-In . SVG Version: 6.00 Build 0)  -->
<svg version="1.1" id="Layer_1" xmlns="http://www.w3.org/2000/svg" xmlns:xlink="http://www.w3.org/1999/xlink" x="0px" y="0px"
	 viewBox="0 0 500 500" style="enable-background:new 0 0 500 500;" xml:space="preserve">
<style type="text/css">
	.st0{fill:#3B5998;}
</style>
<g id="XMLID_60_">
	<path id="XMLID_54_" class="st0" d="M268.2,238.1c-5.5-0.6-10.2,1.1-14.2,5.9v-1.5v-26v-0.3v-1.8l-14.5,1.8v68.5h14.5v-4.1
		c2,1.4,3.9,3.1,6.1,3.9c8.5,3,19.6,0.6,23.5-10.8c2.5-7.3,2.4-14.7,0.6-22.1C282,243.5,276.6,238.9,268.2,238.1z M270.3,267.7
		c-0.6,4.5-4.2,6.9-8.5,6.5c-1.1-0.1-2-0.3-2.9-0.6c-3.4-2-4.5-5.3-4.8-7.4l0,0c-0.2-3.2-0.5-9.9,1.1-13.1c1.3-2.4,3.7-3.8,6.7-3.9
		c4.4-0.1,7.7,2,8.3,6.5C270.9,259.7,270.9,263.8,270.3,267.7z"/>
	<path id="XMLID_50_" class="st0" d="M319.6,238.9c-5-1.4-10.1-1.3-15.2,0c-7.5,2-12.6,6.8-14.2,14.4c-0.9,4.1-1.1,8.5-0.8,12.8
		c0.5,9.7,6.5,16.6,15.9,18.8l0.4,0.1h0l0.1,0c0.4,0.1,0.7,0.1,1.1,0.2l0.4,0h0c0.5,0.1,1,0.1,1.6,0.2c1.8,0.2,4.1,0.3,6.1,0.1l0,0
		l0.3,0c9.6-0.5,16.9-6.6,19.1-15.9c1.2-5.1,1.2-10.2,0-15.4C332.5,246.2,327.6,241,319.6,238.9z M320.3,267c0,0.3-0.1,0.6-0.2,0.9
		c-1,4.3-4.1,6.6-8.2,6.4c-4.5-0.2-7.5-2.8-8-7.3c-0.3-3.3-0.3-6.6-0.1-9.8c0.4-5.1,3.6-8,8.5-7.9c4,0.1,6.8,2.3,7.8,6.1
		C321,259.3,320.3,266.1,320.3,267z"/>
	<path id="XMLID_49_" class="st0" d="M101.6,238.7H91.2v-6.9c0.8-6.5,11.5-5.3,11.5-5.3l0-0.4l0-0.1v-10.7h0v0h0
		c-0.4-0.1-21.4-5.1-25.6,10.9l0,0l0,0.1c-0.7,2-0.6,11.2-0.6,12.3h-9v12.3H77v33.4h13.9v-33.4h10.6l1.2-12.3H101.6z"/>
	<path id="XMLID_46_" class="st0" d="M134.7,244.5c-0.2-0.2-0.3-0.4-0.5-0.5v0l-0.1-0.1c-0.2-0.2-0.3-0.4-0.3-0.4
		c-3.3-3.3-4.5-4.2-7.1-4.9c-9.9-2.9-19.5,2.3-22.5,12.2c-1.9,6.1-1.9,12.4-0.8,18.5c2.4,13.4,12.3,17.8,22.9,15.6
		c3.3-0.7,5.7-2.7,7.9-5.5c0,0,0.2-0.2,0.4-0.7v5.9h13.6v-45.9h-13.6L134.7,244.5L134.7,244.5z M133.5,267.6c-0.5,4.2-3.9,6.8-8,6.6
		c-4.2-0.2-6.9-2.4-7.8-6.4c-1.1-5.7,0.2-12.4,0.3-13c1.1-3.8,3.9-5.7,7.9-5.6c4,0.1,7.1,2.5,7.5,6.6
		C133.9,259.8,133.9,263.8,133.5,267.6z"/>
	<path id="XMLID_45_" class="st0" d="M189.7,281.4c-0.6-2.3-1.3-4.6-2-6.8l-0.7-2.4c0,0-17,8.2-19.6-7.3c-0.2-2.6-0.2-5.2,0.2-7.7
		c0.7-4.8,3.6-7.3,8.2-7.8c1.6-0.1,3.2-0.1,4.7,0.2c2.1,0.4,4.2,1,6.5,1.6c0.8-2.5,1.6-4.9,2.4-7.3c0.1-0.4,0.2-0.7,0.3-1h0l0.4-1.5
		c-0.1-0.2-0.3-0.4-0.6-0.6v0c-0.4-0.3-1.1-0.6-2.1-1c-0.4-0.2-0.8-0.3-1.2-0.4c-0.4-0.1-0.6-0.2-0.6-0.2h0c-4.5-1.3-9-1.4-13.7-0.9
		c-9.8,1-16.5,6.8-18.3,16.4c-1,5-0.9,10.1,0.2,15.2c1.7,7.6,6.2,12.4,13.7,14.6c4.9,1.4,9.8,1.5,14.8,0.7c2.1-0.3,5.1-1.4,7.2-2.2
		l0.8-0.3L189.7,281.4L189.7,281.4z"/>
	<path id="XMLID_42_" class="st0" d="M234.4,263.4c-0.1-3.2,0-6.4-0.5-9.5c-1.2-8.6-6.5-14-14.9-15.4c-3.2-0.5-6.6-0.5-9.9-0.2
		c-9,0.9-15.8,6.4-17.1,14.8c-0.8,5.1-1,10.5-0.3,15.6c1,7.7,4.8,12.6,11.3,14.9h0l0.1,0l0,0c3,0.9,17.4,4.7,30.2-1.7l-0.5-1.9l0,0
		c-0.6-2.5-1.3-5-2-7.5l-0.1-0.2c0,0-0.3,0.1-0.7,0.2l0,0c-0.6,0.1-1.1,0.3-1.7,0.5l-0.3,0.1c-1.9,0.5-4.7,1.2-7.6,1.6
		c-2.4,0.2-4.9,0.3-7.4,0c-4.1-0.7-7.2-2.8-7-8h2.3c7.9,0,15.9,0,23.8,0c0.2,0,0.4,0,0.6,0l0,0l1.8,0v-0.5L234.4,263.4z
		 M221.3,257.1h-15.7c0.1-3.1,0.5-6,3.2-7.8c2.9-1.9,6.2-1.9,9.2-0.3C221.2,250.8,221.4,253.8,221.3,257.1z"/>
	<polygon id="XMLID_41_" class="st0" points="432.5,239.2 417.1,239.2 403.7,260.1 403.7,216.5 403.7,216.2 403.7,214.4 
		389.2,216.2 389.2,284.7 403.7,284.7 403.7,263.7 417.1,284.7 432.5,284.7 418,261.9 	"/>
	<path id="XMLID_35_" class="st0" d="M369.2,238.9c-5-1.4-10.1-1.3-15.2,0c-7.5,2-12.6,6.8-14.2,14.4c-0.9,4.1-1.1,8.5-0.8,12.8
		c0.5,9.7,6.5,16.6,15.9,18.8l0.4,0.1h0l0.1,0c0.4,0.1,0.7,0.1,1.1,0.2l0.4,0l0,0c0.5,0.1,1,0.1,1.6,0.2c1.8,0.2,4.2,0.3,6.1,0.1
		l0,0l0.3,0c9.6-0.5,16.9-6.6,19.1-15.9c1.2-5.1,1.2-10.2,0-15.4C382,246.2,377.2,241,369.2,238.9z M369.8,267
		c0,0.3-0.1,0.6-0.2,0.9c-1,4.3-4.1,6.6-8.2,6.4c-4.5-0.2-7.5-2.8-8-7.3c-0.3-3.3-0.3-6.6-0.1-9.8c0.4-5.1,3.6-8,8.5-7.9
		c4,0.1,6.8,2.3,7.8,6.1C370.6,259.3,369.9,266.1,369.8,267z"/>
</g>
</svg>
